# xmcd
#
# Track frame offsets:
#	150
#	20268
#	39120
#	57209
#	69139
#	82134
#	97976
#	112169
#	131703
#	144718
#	160906
#	176004
#	196038
#	214015
#	232219
#	245552
#	262328
#	277235
#	291316
#	304854
#	320939
#	336532
#
# Disc length: 4715 seconds
#
# Revision: 1
# Processed by: cddbd v1.5.2PL0 Copyright (c) Steve Scherf et al.
# Submitted via: audiograbber 1.83.01
#
DISCID=5f126916
DTITLE=SA - SA - 80-Luvun Suurimmat Kotimaiset Pop-Hitit
DYEAR=2014
DGENRE=Pop
TTITLE0=Dingo - Levoton Tuhkimo
TTITLE1=Juice Leksinen Slam - Viidestoista Yö
TTITLE2=Kauko Röyhkä Ja Narttu - Lauralle
TTITLE3=Mamba - Tuollainen Tyttö - A Girl Like You
TTITLE4=Pave's Mistake - Pidä Huolta
TTITLE5=Keba - Kesä Espalla
TTITLE6=Clifters - Hyvä Bore
TTITLE7=Broadcast - You Break My Heart
TTITLE8=Miljoonasade - Voipallo
TTITLE9=Mika Sundqvist - Moottoripyörä On Moottoripyörä
TTITLE10=Mamba - Älä Jätä Minua
TTITLE11=Miljoonasade - Lapsuuden Sankarille
TTITLE12=Dingo - Sinä Ja Minä
TTITLE13=Bogart Co. - All The Best Girls
TTITLE14=Neumann - Mennään Hiljaa Markkinoille
TTITLE15=Claudia - Korallia
TTITLE16=Mamba - Lauantai-Ilta
TTITLE17=Dingo - Nahkatakkinen Tyttö
TTITLE18=Clifters - Sexi On In
TTITLE19=Broadcast - Who's Got The Ball
TTITLE20=Tavaramarkkinat - Kevät
TTITLE21=Miljoonasade - Marraskuu
EXTD=
EXTT0=
EXTT1=
EXTT2=
EXTT3=
EXTT4=
EXTT5=
EXTT6=
EXTT7=
EXTT8=
EXTT9=
EXTT10=
EXTT11=
EXTT12=
EXTT13=
EXTT14=
EXTT15=
EXTT16=
EXTT17=
EXTT18=
EXTT19=
EXTT20=
EXTT21=
PLAYORDER=
